<svg xmlns="http://www.w3.org/2000/svg" viewBox="0 0 428.22 347.46"><defs><style>.cls-1{fill:#d6d7d8;}.cls-2{fill:#fec006;}.cls-3{fill:#fdc006;}</style></defs><g id="Capa_2" data-name="Capa 2"><g id="Capa_1-2" data-name="Capa 1"><path class="cls-1" d="M332.08,241.79c3.14,7.32,6.48,14.59,7.47,22.61.33,2.61,2.14,2.38,4,2.63,17.06,2.25,29.05,11.22,34.57,27.61,8.81,26.11-10.5,52.34-38.58,52.73-14.14.19-28.3,0-42.45,0q-119.37,0-238.75,0c-24.36,0-42.72-10.55-53.18-32.85-15.77-33.62,6.53-73.64,43.36-77.79,6.23-.71,6.48-3.59,7.22-8.4,8.12-52.63,50.45-89.13,103.63-89.66,1,0,2-.1,3-.15,5.15-4.05,10.74-1.33,15.86-.46,22.16,3.75,41,14.32,56.8,30.05a98.42,98.42,0,0,1,20.83,30.22c1.51,3.42,3.09,4.7,7,4.45,24.58-1.58,45.32,6.67,61.95,25a73.86,73.86,0,0,1,6,7.94A7,7,0,0,1,332.08,241.79Z"/><path class="cls-2" d="M332.08,241.79c-11.13-18.55-26.86-30.88-48.25-35.46-7.86-1.69-15.81-2.3-23.75-.82-2.61.48-3.81-.21-4.87-2.61-15-34-40.67-55-77.09-62.53-5.17-1.07-10.53-1.25-15.8-1.85,14.54-48.4,58.2-78.46,108.4-74.66,48.56,3.68,89.29,44,93.55,92.51,2.85,32.45-7.31,60.25-29.88,83.61A19.61,19.61,0,0,1,332.08,241.79Z"/><path class="cls-3" d="M410.61,156.79c2.82,0,5.66-.19,8.46,0a9.77,9.77,0,0,1,9.15,9.94,9.59,9.59,0,0,1-9.18,9.86c-5.79.28-11.62.28-17.41,0a9.94,9.94,0,0,1-9.29-9.89,10.1,10.1,0,0,1,9.32-9.91C404.63,156.59,407.63,156.79,410.61,156.79Z"/><path class="cls-3" d="M271.38,18.43a83.06,83.06,0,0,1-.06,8.93,9.37,9.37,0,0,1-9.39,8.5c-5,.13-9.23-2.93-9.9-7.89a75.15,75.15,0,0,1,0-19.82A9.59,9.59,0,0,1,261.8,0a9.76,9.76,0,0,1,9.58,9c.28,3.12.05,6.29.05,9.44Z"/><path class="cls-3" d="M201.36,43.7c-.6,5.84-2.74,9.2-7.19,10.61-4.25,1.34-8.22.21-10.64-3.4a147,147,0,0,1-9.4-16.4c-2.11-4.25-.57-8.22,3-11.14s7.74-3.56,11.07-.76C195.06,28.41,198,36.85,201.36,43.7Z"/><path class="cls-2" d="M350,30.77a11.24,11.24,0,0,1-1.52,5.43c-2.55,4.47-5,9-7.74,13.37-3.26,5.2-9,6.7-13.79,3.87s-6.25-8.56-3.32-13.95c2.62-4.81,5.31-9.61,8.37-14.15,2.57-3.82,6.46-5.1,11-3.68S349.47,26.48,350,30.77Z"/><path class="cls-2" d="M395.57,78.56c6.29,0,9.59,2.29,11.09,6.65s.38,8.49-3.45,11.05a129.21,129.21,0,0,1-15.93,9.18c-4.09,2-8.24.92-11.27-2.66s-3.75-8-.8-11.47C380.94,84.64,389.15,81.65,395.57,78.56Z"/><path class="cls-2" d="M397.49,254.93a9.77,9.77,0,0,1-5.26-1.27c-4.59-2.66-9.27-5.17-13.74-8-4.88-3.12-6.24-8.78-3.55-13.44a9.82,9.82,0,0,1,13.42-3.63c4.84,2.54,9.58,5.29,14.21,8.2A9.28,9.28,0,0,1,406.76,248C405.43,252.4,402.22,254.83,397.49,254.93Z"/><path class="cls-2" d="M149.51,96.52a9.66,9.66,0,0,1-14.14,8.66,138.27,138.27,0,0,1-15.05-8.7,9.81,9.81,0,0,1,9.7-17c5.32,2.66,10.45,5.75,15.49,8.92A8.67,8.67,0,0,1,149.51,96.52Z"/></g></g></svg>